# xmcd
#
# Track frame offsets:
#	183
#	12605
#	31090
#	50445
#	68505
#	85780
#	106120
#	120445
#	141305
#	154693
#	166965
#
# Disc length: 2487 seconds
#
# Revision: 1
# Processed by: cddbd v1.5PL3 Copyright (c) Steve Scherf et al.
# Submitted via: CDex 1.50Beta5
#
DISCID=8009b50b
DTITLE=Eddie and The Hotrods - Gasoline Days
DYEAR=1996
DGENRE=Rock
TTITLE0=Human Touch
TTITLE1=Emergency
TTITLE2=Just Do It
TTITLE3=Love Runaway
TTITLE4=Love Lies Bleeding
TTITLE5=It's Killing Me
TTITLE6=(Oh No) What You Gonna Do
TTITLE7=Crazy
TTITLE8=Gasoline Days
TTITLE9=Love Love Love
TTITLE10=Alive
EXTD=
EXTT0=
EXTT1=
EXTT2=
EXTT3=
EXTT4=
EXTT5=
EXTT6=
EXTT7=
EXTT8=
EXTT9=
EXTT10=
PLAYORDER=
